<?xml version="1.0" encoding="UTF-8" standalone="no"?>
<!-- Created with Inkscape (http://www.inkscape.org/) -->

<svg
   version="1.1"
   id="svg2515"
   width="675"
   height="458"
   viewBox="0 0 675 458"
   sodipodi:docname="olho.svg"
   inkscape:version="1.2.1 (9c6d41e410, 2022-07-14)"
   xmlns:inkscape="http://www.inkscape.org/namespaces/inkscape"
   xmlns:sodipodi="http://sodipodi.sourceforge.net/DTD/sodipodi-0.dtd"
   xmlns="http://www.w3.org/2000/svg"
   xmlns:svg="http://www.w3.org/2000/svg">
  <defs
     id="defs2519" />
  <sodipodi:namedview
     id="namedview2517"
     pagecolor="#ffffff"
     bordercolor="#000000"
     borderopacity="0.25"
     inkscape:showpageshadow="2"
     inkscape:pageopacity="0.0"
     inkscape:pagecheckerboard="0"
     inkscape:deskcolor="#d1d1d1"
     showgrid="false"
     inkscape:zoom="5.0269425"
     inkscape:cx="436.4482"
     inkscape:cy="231.75121"
     inkscape:window-width="1920"
     inkscape:window-height="1017"
     inkscape:window-x="-8"
     inkscape:window-y="-8"
     inkscape:window-maximized="1"
     inkscape:current-layer="g2521" />
  <g
     inkscape:groupmode="layer"
     inkscape:label="Image"
     id="g2521">
    <path
       style="fill:#803300;stroke:#000000;stroke-width:0.4;stroke-opacity:1"
       d="m 359.45701,240.74539 c 2.71239,3.75226 6.00882,7.80558 9.28378,11.46407 4.08443,4.45961 9.11144,8.98129 14.27734,13.50369 4.65062,3.83186 8.98367,7.90478 14.26454,11.28646 l 1.63146,1.23257 -0.42907,0.29944 c -2.68154,-1.11223 -5.00638,-2.48215 -7.6951,-3.93626 -5.20505,-3.34417 -9.2372,-5.68286 -13.53903,-8.81188 l -10.62008,-7.87716 -9.0728,-8.79145 c -2.84988,-3.67266 -5.5704,-7.45145 -7.98264,-11.07725 l -0.24616,-1.86379 9.35411,-2.81326 24.89742,-4.92322 19.83354,-2.81327 25.31941,-1.12531 33.40755,0.84399 43.50016,5.4507 23.38529,5.6617 c -3.52143,0.57708 -15.44907,-1.52357 -23.17429,-2.28578 l -16.77412,-1.65279 -34.46253,-2.10996 c -11.44062,0.0469 -22.99564,-0.44706 -34.14603,0.0703 -6.5527,-0.18283 -13.27276,0.24748 -19.13022,1.19563 -6.25952,0.49565 -12.69488,1.66208 -18.9544,2.81327 -5.18409,0.98071 -10.14195,2.04116 -15.78947,3.55176 -2.51827,0.41121 -4.80749,1.6417 -7.13866,2.70776 z"
       id="path2626"
       sodipodi:nodetypes="cccccccccccccccccccccccccccc" />
    <path
       style="fill:none;stroke:#000000;stroke-width:0.4;stroke-opacity:1"
       d="m 402.90115,231.18382 1.09265,10.78634 c 0.70334,3.30672 1.4954,6.46559 2.59373,9.11399 l 1.3363,3.02427 c 1.06105,3.90535 4.0978,7.3408 7.01257,11.2154 l 3.81851,3.76525 c 1.6863,1.68921 3.69161,3.13916 5.90787,4.43089 l 6.04852,3.0946 4.29024,1.40663 5.69686,0.91431 4.85289,0.211 5.41554,-0.42199 7.38483,-2.03962 5.7672,-2.6726 5.25939,-3.55571 6.27501,-5.93907 5.27487,-8.15848 c 1.11064,-2.99381 2.74681,-5.35055 3.80998,-9.70577 0.97852,-3.587 1.34679,-7.94911 1.72563,-11.95639 l 0.0547,-1.7789 -4.16309,-0.22809 -0.0206,2.07728 -0.14067,4.78255 -1.26597,5.55621 -4.42735,10.99234 -3.87179,5.81693 -5.62653,5.55621 -6.47052,4.64189 c -2.95704,1.15199 -5.58375,2.39406 -9.9253,3.16846 l -6.46198,0.55912 c -2.70377,-0.24709 -5.268,-0.28489 -8.47247,-1.28303 -3.1355,-0.60155 -5.68076,-2.23601 -8.30768,-3.72758 -3.59228,-2.7127 -7.04131,-4.83844 -9.49831,-8.37801 -3.42187,-3.96352 -5.4514,-6.9386 -6.90104,-11.03708 l -2.10141,-6.38812 -1.01025,-5.19601 -0.49232,-8.903 z"
       id="path3319"
       sodipodi:nodetypes="cccccccccccccccccccccccccccccccccccccc" />
    <path
       style="fill:none;stroke:#000000;stroke-width:0.4;stroke-opacity:1"
       d="m 418.29601,241.00137 c -3.76821,0.28961 -6.80131,0.43107 -10.04587,0.79571 l 0.99464,4.27695 1.98928,6.01757 c 0.73028,1.51831 1.47297,2.875 2.13848,4.32669 l 2.33741,3.28231 2.93418,3.8791 2.38714,2.38714 4.07803,3.28231 3.5807,2.53633 4.07803,2.03902 3.97856,1.14383 3.43151,0.59679 3.08338,0.24866 2.4866,-0.0497 3.68017,-0.24866 4.0283,-0.74598 4.67481,-1.64115 3.77963,-1.79036 3.92883,-3.08338 3.58071,-3.08339 2.88445,-2.98392 2.23794,-3.13311 2.08875,-3.18285 4.22722,-10.74212 0.74598,-3.43151 -17.15755,-1.39249 -0.54704,2.08874 -0.94491,2.88446 -0.99465,2.38713 -1.29303,2.4866 -1.34276,1.79036 -1.79036,2.18821 -2.58606,2.1882 -2.58607,1.59143 -2.88445,1.29303 -3.68017,0.59679 -3.92883,-0.0995 -2.43687,-0.69625 -3.77963,-2.08874 -2.88446,-2.23794 -2.23794,-2.28767 -1.49196,-2.23795 -2.68553,-5.27159 -1.88982,-3.8791 z"
       id="path3321"
       sodipodi:nodetypes="cccccccccccccccccccccccccccccccccccccccccccccc" />
    <ellipse
       style="fill:#ffffff;fill-opacity:1;stroke:none;stroke-width:0.412983;stroke-opacity:1"
       id="path3375"
       cx="425.63147"
       cy="243.43826"
       rx="8.2315874"
       ry="7.0628848" />
    <ellipse
       style="fill:#ffffff;fill-opacity:1;stroke:none;stroke-width:0.253601;stroke-opacity:1"
       id="ellipse3379"
       cx="462.75641"
       cy="257.18915"
       rx="4.924408"
       ry="4.4519539" />
    <path
       style="fill:none;fill-opacity:1;stroke:#000000;stroke-width:0.4;stroke-opacity:1"
       d="m 464.39759,240.15592 -0.0497,-0.89518 -1.93955,0.0995 -0.34812,1.44222 -0.39786,1.3925 -0.64652,1.74062 -0.64651,1.64116 -0.84545,1.69089 -1.69088,2.73526 -1.49197,1.93955 -1.88981,1.59142 -2.13848,1.64116 -2.28767,1.2433 c 0,0 -1.32619,0.59678 -2.18821,0.84544 -1.04725,0.58132 -2.82445,0.3075 -4.12776,0.24866 -0.92052,0.12831 -2.46874,-0.24184 -3.48124,-0.69624 -0.83966,-0.28104 -1.51454,-0.66454 -2.73526,-1.49197 -1.48828,-0.89947 -1.94287,-1.32177 -2.6358,-1.88981 l -2.13847,-2.28767 -1.64116,-2.13848 -0.0995,-0.0497 -1.98928,1.14383 0.64652,1.19357 0.99464,1.2433 1.44223,1.44223 1.39249,1.19357 1.24331,1.14383 1.88982,1.14384 1.49196,0.84544 1.84007,0.84545 2.68554,0.59678 3.92883,-0.0497 3.38177,-0.54705 3.23258,-1.69088 1.79036,-1.29304 3.03365,-2.4866 2.68553,-3.58071 c 1.00839,-1.56603 1.97964,-3.34584 2.33741,-5.17213 z"
       id="path3381"
       sodipodi:nodetypes="ccccccccccccccccccccccccccccccccccccccc" />
    <path
       style="fill:#000000;fill-opacity:1;stroke:#000000;stroke-width:0.0795712;stroke-opacity:1"
       d="m 394.13291,276.2315 c -4.97558,-2.66505 -13.61527,-8.39729 -21.58416,-14.3206 -5.16686,-3.84055 -6.14619,-4.66617 -10.24479,-8.63688 -3.83406,-3.71441 -4.88709,-4.86704 -6.83923,-7.48608 -4.33099,-5.81057 -5.61324,-7.78035 -5.63246,-8.65251 l -0.0172,-0.78255 4.47588,-1.35253 c 3.87402,-1.17066 6.17447,-1.68738 17.10782,-3.84272 10.48797,-2.06753 14.29345,-2.72459 22.42141,-3.8713 l 9.78948,-1.38111 12.63497,-0.55117 12.63496,-0.55117 16.86385,0.43203 16.86385,0.43203 21.38477,2.69454 21.38476,2.69454 10.44373,2.5141 c 5.74405,1.38275 10.48848,2.55626 10.54319,2.60778 0.19273,0.18154 -3.3641,-0.19095 -11.04051,-1.1562 -13.9827,-1.75824 -24.58289,-2.69713 -43.66459,-3.86752 l -17.60526,-1.07984 -14.9196,-0.0314 c -8.20579,-0.0173 -17.60072,0.0191 -20.87764,0.0809 -6.09917,0.11496 -15.44574,0.68303 -15.62767,0.94982 -0.0558,0.0818 -1.44333,0.29222 -3.08338,0.4675 -8.84073,0.94489 -20.33483,3.05266 -30.92557,5.67109 -3.59206,0.8881 -5.21722,1.39645 -6.96361,2.17824 -1.25291,0.56089 -2.35143,1.0932 -2.44114,1.18291 -0.27651,0.27651 4.7274,6.67157 8.81807,11.26962 6.19919,6.96811 19.30628,18.40372 27.58643,24.06848 2.8944,1.98017 3.478,2.50252 2.77224,2.48129 -0.1303,-0.004 -2.04665,-0.97646 -4.25855,-2.16121 z"
       id="path6627" />
    <path
       style="fill:#000000;fill-opacity:1;stroke:#4cbfc8;stroke-width:0.0397856;stroke-opacity:1"
       d="m 441.1216,259.1683 c -1.25912,-0.2955 -2.00999,-0.62232 -4.0554,-1.76513 -1.87282,-1.04638 -4.36047,-3.03489 -5.79711,-4.63393 -0.59115,-0.65798 -1.947,-2.5518 -1.86617,-2.60665 0.49568,-0.33633 1.50342,-0.85033 1.57746,-0.80458 0.0549,0.0339 0.43037,0.49502 0.83439,1.02465 0.85695,1.12339 2.63876,3.05282 3.37499,3.65463 0.68491,0.55984 2.82263,1.97302 3.69235,2.44089 0.87244,0.46933 2.17465,0.95236 3.08212,1.14325 0.46972,0.0988 1.43093,0.15278 2.98435,0.16755 l 2.29146,0.0218 1.33091,-0.52058 c 2.53846,-0.99291 4.31696,-2.1003 6.99129,-4.35316 2.62602,-2.21217 5.4176,-7.2144 6.72402,-12.04876 l 0.35918,-1.32916 h 0.72688 0.72688 v 0.35273 c 0,0.51297 -1.41934,5.34753 -1.94286,6.61779 -0.7315,1.77489 -1.61521,3.32155 -2.75169,4.81597 -1.6418,2.1589 -1.82413,2.35421 -3.36361,3.60305 -2.42888,1.97034 -3.33186,2.54865 -5.40368,3.46076 -1.12316,0.49448 -1.45359,0.59113 -2.73526,0.80012 -1.21876,0.19874 -1.80022,0.23687 -3.54651,0.23262 -1.91052,-0.005 -2.18647,-0.028 -3.23399,-0.27387 z"
       id="path6629" />
    <path
       style="fill:#000000;fill-opacity:1;stroke:#000000;stroke-width:0.0397856;stroke-opacity:1"
       d="m 443.01282,278.78068 c -2.18205,-0.1002 -2.91145,-0.17833 -5.22186,-0.55933 -2.38461,-0.39324 -2.91958,-0.51803 -4.77427,-1.11372 -1.96058,-0.6297 -2.28706,-0.77229 -5.32072,-2.32378 -3.31756,-1.69668 -5.23916,-2.87135 -6.96309,-4.25651 -0.465,-0.37362 -1.9917,-1.82113 -3.39268,-3.21669 -2.42322,-2.41383 -2.63953,-2.66088 -4.44246,-5.07372 -1.04237,-1.39498 -2.19372,-3.0063 -2.55856,-3.5807 -0.8002,-1.25986 -1.64566,-2.96273 -1.97533,-3.97856 -0.13315,-0.41029 -0.58639,-1.52926 -1.0072,-2.4866 -1.20559,-2.74272 -1.99497,-5.22898 -2.779,-8.75284 -0.27717,-1.24572 -0.43973,-2.49645 -0.84678,-6.51489 -0.27706,-2.73526 -0.50373,-5.04506 -0.50371,-5.13289 4e-5,-0.1331 0.31527,-0.19722 1.89414,-0.38529 1.04175,-0.12408 1.92008,-0.19962 1.95183,-0.16787 0.0318,0.0318 0.16345,1.97312 0.29264,4.31412 l 0.2349,4.25638 0.50426,2.6358 c 0.46505,2.43085 0.58986,2.89488 1.60516,5.96784 0.6055,1.83263 1.29409,3.80869 1.5302,4.39126 1.09912,2.71189 2.48113,4.96187 4.89827,7.97459 0.53438,0.66605 1.33486,1.68096 1.77884,2.25537 0.78312,1.01316 2.64857,2.92185 3.66092,3.74578 1.64597,1.3396 3.61551,2.84014 5.22187,3.97839 1.47716,1.0467 2.23242,1.4998 3.82936,2.29732 1.83259,0.9152 2.15773,1.0411 4.12776,1.59827 3.22026,0.91076 6.49392,1.4034 9.34962,1.40699 2.05779,0.003 5.23693,-0.28282 7.3106,-0.65629 1.76705,-0.31826 2.26708,-0.45609 4.47589,-1.23377 2.5408,-0.89458 3.79298,-1.39116 4.67481,-1.8539 0.27352,-0.14353 0.71853,-0.37211 0.98889,-0.50795 0.27037,-0.13583 1.18792,-0.79405 2.03901,-1.46271 0.85109,-0.66867 1.99503,-1.53877 2.54208,-1.93356 0.64361,-0.46448 1.97495,-1.67191 3.77228,-3.42118 l 2.77763,-2.70337 2.11034,-3.18285 c 1.19315,-1.79953 2.19679,-3.42061 2.30923,-3.7299 0.10939,-0.30088 1.06063,-2.69548 2.11388,-5.32133 l 1.91499,-4.77427 0.63829,-2.73526 0.32181,-3.0166 -0.0885,-2.1264 c -0.0565,-1.35686 -0.3208,-3.12237 0.23386,-3.59455 l 0.0412,-1.6088 2.19351,0.20916 c 2.36393,0.22542 2.59196,-0.13303 1.64015,0.75474 0.38115,-0.54882 0.4611,-1.02958 0.40024,-0.14765 -0.0364,0.52776 -0.43487,3.01521 -0.54162,4.10932 -0.72897,7.47175 -1.51443,10.77615 -3.67645,15.46665 -0.34041,0.73852 -0.85391,1.88455 -1.14112,2.54673 -0.41569,0.95839 -1.05205,2.02345 -3.12,5.22186 l -2.59779,4.0179 -3.10917,2.93828 -3.10917,2.93827 -2.61727,1.77068 c -2.55697,1.72987 -2.68319,1.80122 -5.47859,3.09681 l -2.86133,1.32614 -3.62236,1.00823 -3.62237,1.00824 -2.73526,0.21755 c -2.52744,0.20102 -2.92798,0.2087 -5.2716,0.10107 z"
       id="path6631"
       sodipodi:nodetypes="sssssssssssssssscssssssssscssssssscssscccsccscssssscccsscccsss" />
    <path
       style="fill:#803300;fill-opacity:1;stroke:#000000;stroke-width:0.0562654;stroke-opacity:1"
       d="m 441.75338,275.39286 c -2.63814,-0.23022 -6.88142,-1.17226 -8.7884,-1.95108 -3.15918,-1.29024 -6.26842,-3.273 -10.48249,-6.68468 -2.34021,-1.89462 -2.70613,-2.2904 -5.90702,-6.38916 -2.89233,-3.70365 -4.57144,-6.86114 -6.09642,-11.46407 -0.85813,-2.59014 -1.95608,-6.69946 -1.8235,-6.82486 0.0727,-0.0688 3.02284,-0.34066 6.15711,-0.5674 2.88231,-0.20852 3.2297,-0.28096 3.23678,-0.675 10e-4,-0.0659 -0.42511,-0.0814 -0.94732,-0.0344 -2.14564,0.19284 -7.05466,0.5432 -7.83399,0.55913 l -0.83598,0.0171 -0.11866,-0.49232 c -0.13623,-0.56522 -0.70715,-9.57583 -0.61272,-9.67027 0.38062,-0.38061 14.71654,-0.66877 31.52067,-0.63358 l 13.92567,0.0292 14.58676,0.87834 c 8.02271,0.48309 14.53614,0.91176 14.47429,0.9526 -0.0618,0.0409 -0.15103,1.66507 -0.19817,3.60939 -0.0626,2.58089 -0.14851,3.78511 -0.31834,4.4612 l -0.23262,0.92607 -0.58194,-0.0685 c -0.32007,-0.0377 -3.74687,-0.31902 -7.61511,-0.6252 -3.86824,-0.30619 -7.39714,-0.59588 -7.84199,-0.64376 l -0.80881,-0.0871 2.8e-4,-0.51367 2.8e-4,-0.51368 -1.21036,0.0703 -1.21037,0.0703 -0.34398,1.33025 c -0.35506,1.37308 -1.55543,4.71134 -2.05065,5.70292 -0.52644,1.05408 -2.38544,3.95305 -3.11367,4.85554 -0.72237,0.89522 -3.17836,2.99508 -4.52028,3.86482 -1.12384,0.7284 -2.90228,1.5915 -4.24399,2.05965 l -1.24188,0.43333 -2.25061,-0.0962 c -3.10643,-0.13271 -4.12709,-0.47807 -7.12606,-2.41121 -1.64331,-1.05928 -3.73162,-3.05924 -5.15292,-4.93492 -0.48018,-0.6337 -0.93465,-1.19024 -1.00993,-1.23677 -0.0999,-0.0618 -1.78891,0.79298 -2.50261,1.26649 -0.0931,0.0617 0.78377,1.48538 1.38441,2.24776 0.67222,0.85322 2.20675,2.3614 3.72966,3.66559 1.59472,1.36569 5.03519,3.24671 6.906,3.77575 1.13942,0.32221 1.55053,0.36548 3.47227,0.36548 1.53824,0 2.73108,-0.0878 4.05277,-0.29822 1.76871,-0.28162 1.96297,-0.34582 3.49057,-1.15355 0.8897,-0.47044 2.12402,-1.18643 2.74294,-1.5911 2.97627,-1.94599 5.67753,-5.01085 7.54818,-8.56418 0.63308,-1.20256 2.08551,-5.30643 2.5072,-7.08413 l 0.17947,-0.75661 0.79043,0.0796 c 0.43475,0.0438 4.14526,0.34728 8.2456,0.67448 4.10034,0.3272 7.47964,0.61414 7.50955,0.63764 0.0299,0.0235 -0.089,0.72291 -0.26433,1.55423 -0.24176,1.14646 -0.83673,2.81132 -2.46364,6.89377 -2.30582,5.78606 -2.47611,6.1112 -5.25316,10.03008 -2.72456,3.8448 -10.11188,10.11148 -13.93963,11.82503 -1.91138,0.85565 -4.3762,1.71417 -6.4773,2.2561 -2.55266,0.6584 -8.29831,1.1129 -11.04208,0.87346 z"
       id="path7280" />
    <path
       style="fill:#803300;fill-opacity:1;stroke:#000000;stroke-width:0.0562654;stroke-opacity:1"
       d="m 440.20608,274.96617 c -1.66791,-0.25866 -4.19352,-0.81414 -5.76719,-1.26845 -2.7864,-0.8044 -6.84927,-3.14303 -10.76075,-6.19399 -2.84431,-2.21856 -3.71679,-3.07487 -5.8647,-5.756 -4.30315,-5.37142 -6.08787,-8.71403 -7.92798,-14.84831 -0.77753,-2.59201 -1.31458,-4.77317 -1.20278,-4.88497 0.051,-0.051 1.78422,-0.23347 3.85166,-0.40554 4.47406,-0.37236 5.10234,-0.44811 5.33792,-0.64362 0.59217,-0.49146 0.005,-0.49532 -6.26971,-0.0411 -1.72891,0.12515 -3.17421,0.19679 -3.21179,0.15922 -0.22846,-0.22847 -0.86241,-9.74049 -0.66237,-9.93842 0.40695,-0.40265 22.60474,-0.77893 37.33058,-0.63281 7.81621,0.0776 9.94261,0.14901 17.02027,0.57191 10.91601,0.65226 19.75426,1.21293 19.80429,1.25633 0.0226,0.0196 -0.0261,1.6284 -0.10813,3.57512 -0.13812,3.27622 -0.30846,4.84702 -0.55444,5.11282 -0.0886,0.0958 -15.51781,-1.0805 -16.29328,-1.24214 -0.25497,-0.0531 -0.3165,-0.16115 -0.3165,-0.55561 v -0.48964 h -0.68368 c -0.37603,0 -0.96794,0.039 -1.31536,0.0866 l -0.63168,0.0866 -0.37673,1.33371 c -1.7917,6.34298 -4.38293,10.43916 -8.62668,13.63693 -1.3262,0.99932 -3.71572,2.24891 -5.38614,2.81668 -1.17231,0.39846 -1.23452,0.40444 -3.18863,0.30681 -2.26004,-0.11292 -3.33512,-0.34388 -4.78272,-1.02749 -2.75084,-1.29906 -5.33293,-3.48984 -7.77262,-6.59473 -0.66833,-0.85055 -0.79527,-0.94931 -1.11654,-0.86867 -0.536,0.13452 -2.14045,1.06139 -2.22678,1.28638 -0.0411,0.10701 0.13819,0.54762 0.39836,0.97913 1.58773,2.63337 5.16363,5.7432 8.71528,7.57935 2.76508,1.42951 4.83471,1.79533 8.41282,1.48706 2.28703,-0.19705 3.62603,-0.46625 4.65412,-0.93572 1.35402,-0.6183 3.9392,-2.18167 4.97694,-3.00978 2.47332,-1.97366 5.13011,-5.30344 6.40049,-8.02179 0.61268,-1.31102 1.51879,-3.82904 2.12518,-5.90577 0.34158,-1.16982 0.43176,-1.34131 0.72378,-1.37646 0.28479,-0.0343 12.52922,0.92585 15.15126,1.18807 l 0.89201,0.0892 -0.0955,0.64741 c -0.15777,1.06992 -1.00091,3.53149 -2.55849,7.46958 -1.85262,4.68403 -2.55719,6.14906 -3.98329,8.28254 -1.60018,2.39389 -2.61525,3.63213 -4.5684,5.5728 -4.20733,4.18046 -8.52975,7.31501 -11.9592,8.67261 -4.7936,1.89763 -7.77254,2.47338 -13.36302,2.58275 -2.08994,0.0409 -3.32422,4.2e-4 -4.21991,-0.13854 z"
       id="path7282" />
    <path
       style="fill:#803300;fill-opacity:1;stroke:#000000;stroke-width:0.4;stroke-opacity:1"
       d="m 417.91093,240.92122 10.83109,9.21345 2.18028,-1.26597 z"
       id="path7354" />
    <ellipse
       style="fill:#ffffff;fill-opacity:1;stroke:#ffffff;stroke-width:0.694618;stroke-opacity:1"
       id="path8708"
       cx="423.73093"
       cy="245.44003"
       rx="7.3254337"
       ry="6.551785" />
    <ellipse
       style="fill:#00ffff;fill-opacity:1;stroke:#ffffff;stroke-width:0.4202;stroke-opacity:1"
       id="ellipse11050"
       cx="461.7804"
       cy="256.34146"
       rx="4.2977161"
       ry="4.0867214" />
    <path
       style="fill:#ffccaa;fill-opacity:1;stroke:#ffffff;stroke-width:0.0572887;stroke-opacity:1"
       d="m 442.69502,257.67205 c -3.15296,-0.41898 -6.68522,-2.8076 -9.85437,-6.66381 -0.69686,-0.84794 -1.41751,-1.67353 -1.60143,-1.83466 l -0.33442,-0.29297 0.28868,-0.94423 c 0.22943,-0.75045 0.27828,-1.23133 0.23805,-2.34329 -0.0461,-1.27311 -0.0989,-1.50002 -0.58714,-2.52024 -2.10491,-4.39872 -8.00627,-5.69251 -12.05601,-2.64311 -0.48821,0.36763 -0.7498,0.47073 -1.06915,0.4214 -0.23254,-0.0359 -2.38399,0.0719 -4.781,0.23975 -3.24425,0.22707 -4.3837,0.26245 -4.45792,0.13843 -0.15978,-0.26702 -0.47986,-4.16628 -0.63974,-7.79318 l -0.0971,-2.20296 0.8305,-0.094 c 2.20421,-0.24927 9.65904,-0.3974 23.8723,-0.47432 16.38004,-0.0887 20.9497,-0.005 29.80638,0.54152 11.20947,0.69254 18.37087,1.16181 19.00953,1.24565 l 0.68884,0.0904 -0.0983,2.71269 c -0.0991,2.73405 -0.29623,5.24432 -0.45204,5.75418 -0.079,0.2588 -0.19508,0.2699 -1.86084,0.17792 -1.81406,-0.10013 -11.76517,-0.88864 -13.59684,-1.07736 l -1.01276,-0.10434 -0.0438,-0.54582 -0.0438,-0.54582 -0.80183,0.0107 c -0.441,0.006 -1.07916,0.0551 -1.41812,0.10916 l -0.6163,0.0984 -0.51995,1.8194 c -0.95258,3.33319 -2.12215,6.03687 -3.65193,8.44202 -0.98549,1.54938 -3.92584,4.61476 -5.37657,5.60516 -1.24773,0.85183 -3.6558,2.09525 -4.89783,2.52903 -0.96129,0.33573 -2.97437,0.39536 -4.86526,0.14409 z"
       id="path11190" />
    <path
       style="fill:#ffffff;fill-opacity:1;stroke:#ffffff;stroke-width:0.0198928;stroke-opacity:1"
       d="m 460.88692,260.09923 c -1.3968,-0.30391 -2.56438,-1.33389 -2.98759,-2.63552 -0.18718,-0.57569 -0.21753,-1.39117 -0.073,-1.96259 0.18269,-0.72245 0.4877,-1.26758 1.00081,-1.78873 0.77842,-0.79059 1.79952,-1.2052 2.96476,-1.20379 1.16769,0.001 2.09653,0.38302 2.90846,1.19494 0.59298,0.59299 0.90656,1.15607 1.06059,1.90451 0.1678,0.81532 0.0673,1.55906 -0.3184,2.35578 -0.50222,1.03747 -1.44974,1.79144 -2.62643,2.08993 -0.54345,0.13786 -1.41063,0.1583 -1.92918,0.0455 z"
       id="path11468" />
    <path
       style="fill:#ffffff;fill-opacity:1;stroke:#ffffff;stroke-width:0.00351658;stroke-opacity:1"
       d="m 457.731,256.21177 c 0.0151,-0.3972 0.0623,-0.66064 0.18475,-1.0308 0.14407,-0.43564 0.33693,-0.79369 0.61491,-1.14159 0.69961,-0.87553 1.65818,-1.3947 2.79691,-1.51482 0.21146,-0.0223 0.72036,-0.0223 0.93189,0 0.80529,0.0849 1.46735,0.35315 2.06838,0.83807 0.4948,0.3992 0.89989,0.88485 1.14272,1.36998 0.21476,0.42906 0.35272,0.98233 0.36884,1.47916 l 0.005,0.16045 h -4.05985 -4.05986 z"
       id="path11470" />
    <path
       style="fill:#ffffff;fill-opacity:1;stroke:#ffffff;stroke-width:0.00351658;stroke-opacity:1"
       d="m 457.72751,256.30408 c 1.6e-4,-0.27795 0.0413,-0.60644 0.10703,-0.85497 0.18733,-0.7082 0.49656,-1.24623 1.01337,-1.7632 0.66663,-0.66683 1.49272,-1.05545 2.46647,-1.16028 0.17923,-0.0193 0.57516,-0.0263 0.77365,-0.0137 1.06889,0.0679 1.92021,0.46624 2.6814,1.25455 0.53939,0.55862 0.8329,1.09271 0.98749,1.79691 0.051,0.23211 0.0851,0.51474 0.0851,0.70473 v 0.10409 h -4.05726 -4.05726 l 4e-5,-0.0681 z"
       id="path11472" />
    <path
       style="fill:#ffffff;fill-opacity:1;stroke:#ffffff;stroke-width:0.00351658;stroke-opacity:1"
       d="m 457.7303,256.211 c 0.01,-0.28423 0.0408,-0.51611 0.0989,-0.74293 0.18563,-0.72426 0.52607,-1.30946 1.06461,-1.83002 0.66984,-0.64747 1.48412,-1.01692 2.46455,-1.11818 0.14734,-0.0152 0.72302,-0.0152 0.87035,0 1.01611,0.10495 1.79108,0.48145 2.51615,1.2224 0.44083,0.4505 0.71484,0.87395 0.88641,1.36985 0.12281,0.35494 0.19664,0.74232 0.20793,1.09086 l 0.005,0.16924 h -4.05999 -4.05998 z"
       id="path11474" />
  </g>
</svg>
